<?xml version="1.0" encoding="UTF-8"?>
<svg width="197px" height="27px" viewBox="0 0 197 27" version="1.1" xmlns="http://www.w3.org/2000/svg" xmlns:xlink="http://www.w3.org/1999/xlink">
    <title>logo</title>
    <g id="Symbols" stroke="none" stroke-width="1" fill="none" fill-rule="evenodd">
        <g id="Icon-Desktop/Logo-Default-Navy" transform="translate(-4.000000, -7.000000)" fill-rule="nonzero">
            <g id="logo" transform="translate(4.000000, 7.000000)">
                <polygon id="Path" fill="#C10230" points="45.7355932 23 52 23 44.1322034 13.3974082 51.0118644 5 44.7288136 5 41 9.56803456 37.2711864 5 30.9881356 5 37.8491525 13.3974082 30 23 36.2830508 23 41 17.2267819"></polygon>
                <path d="M104.085995,0 L94.9139731,0 C88.3472422,0.0320252954 83.0316984,5.40239177 83,12.0368497 L83,14.9631503 C83.0106314,21.6064647 88.3384762,26.989259 94.9139731,27 L104.085995,27 C110.661492,26.989259 115.989336,21.6064647 115.999984,14.9631503 L115.999984,12.1148844 C116.010685,5.44997239 110.6828,0.0322408213 104.085995,0 Z M103.313614,21.0108382 L95.5898063,21.0108382 C92.3180521,21.0006365 89.6564407,18.3462717 89.6038555,15.041185 L89.6038555,12.1148844 C89.6144956,8.77168541 92.3000283,6.06717925 95.6091158,6.06719653 L102.927423,6.06719653 C106.316312,6.03073001 109.13308,8.69599858 109.318874,12.1148844 L109.318874,15.041185 C109.308234,18.384384 106.622701,21.0888728 103.313614,21.0888728 L103.313614,21.0108382 Z" id="Shape" fill="#231F20"></path>
                <path d="M120,15.0323276 C120.010768,21.637462 125.407273,26.9893207 132.067508,27 L151,27 L151,10.9978448 L138.776025,10.9978448 L133.984227,16.5452586 L144.017666,16.5452586 L144.017666,20.8512931 L133.084543,20.8512931 C129.732828,20.840605 127.021434,18.1429679 127.021451,14.8189655 L127.021451,12.1422414 C127.016253,10.5441549 127.652746,9.0097546 128.79036,7.8779127 C129.927974,6.74607079 131.473116,6.10990548 133.084543,6.10991379 L145.719243,6.10991379 L151,0 L132.067508,0 C125.407273,0.0106793005 120.010768,5.36253802 120,11.9676724 L120,15.0323276 Z" id="Path" fill="#231F20"></path>
                <rect id="Rectangle" fill="#231F20" x="155" y="0" width="7" height="27"></rect>
                <polygon id="Path" fill="#231F20" points="57 0 57 27 84 27 78.8069414 20.9415584 63.9305857 20.9415584 63.9305857 0"></polygon>
                <path d="M21.5651537,24.6763978 C23.7093273,23.2811521 25.0608132,20.9363831 25.2005857,18.3690821 C25.3504703,16.6297366 24.9932696,14.8841322 24.1727672,13.346235 C23.009105,11.4046539 21.1136425,10.0212082 18.9194729,9.5120005 L26,1 L2.03660322,1 L2.03660322,6.02284714 L14.9033675,6.02284714 L8.79355783,13.1161809 L11.8960469,13.1161809 C13.7133491,13.026168 15.5212405,13.4300882 17.1303075,14.2856224 C18.1064336,14.9195456 18.6947029,16.0106475 18.6910688,17.1804694 C18.758258,18.3119062 18.2756086,19.4057121 17.3967789,20.1136588 C16.4448863,20.806767 15.3292287,21.2364235 14.1610542,21.359785 C12.5051608,21.552826 10.8296391,21.4881661 9.19326501,21.1680733 C7.27692505,20.8306649 5.46889947,20.0351722 3.92093704,18.8483614 L0,23.4877851 C2.16365051,25.0572506 4.65882808,26.1005906 7.28989751,26.5360015 C9.90508246,27.0454997 12.5837165,27.1360795 15.22694,26.8043979 C17.4763197,26.6064571 19.6477372,25.8774225 21.5651537,24.6763978 Z" id="Path" fill="#231F20"></path>
                <path d="M196.94265,20.8512931 L180.769941,20.8512931 C177.493917,20.840605 174.843754,18.1429679 174.843771,14.8189655 L174.843771,12.1422414 C174.83869,10.5441549 175.460809,9.0097546 176.572732,7.8779127 C177.684656,6.74607079 179.194905,6.10990548 180.769941,6.10991379 L196.94265,6.10991379 L196.94265,0 L179.73764,0 C173.250219,0.0425970183 168.010362,5.38514429 168,11.9676724 L168,15.0323276 C168.010525,21.637462 173.285162,26.9893207 179.79499,27 L197,27 L196.94265,20.8512931 Z" id="Path" fill="#231F20"></path>
            </g>
        </g>
    </g>
</svg>